<?xml version="1.0" encoding="UTF-8"?>
<svg width="49px" height="44px" viewBox="0 0 49 44" version="1.1" xmlns="http://www.w3.org/2000/svg" xmlns:xlink="http://www.w3.org/1999/xlink">
    <!-- Generator: Sketch 55.2 (78181) - https://sketchapp.com -->
    <title>5Glogo</title>
    <desc>Created with Sketch.</desc>
    <defs>
        <polygon id="path-1" points="0.0590933212 0.0786564342 9.49880606 0.0786564342 9.49880606 16.670529 0.0590933212 16.670529"></polygon>
        <linearGradient x1="58.0481568%" y1="0%" x2="40.121329%" y2="100%" id="linearGradient-3">
            <stop stop-color="#FF6D02" offset="0%"></stop>
            <stop stop-color="#0B81EF" offset="100%"></stop>
        </linearGradient>
        <polygon id="path-4" points="0.0739722679 0.0786564342 19.0658683 0.0786564342 19.0658683 4.10862347 0.0739722679 4.10862347"></polygon>
        <linearGradient x1="100%" y1="77.0896135%" x2="0%" y2="77.0896135%" id="linearGradient-6">
            <stop stop-color="#FF6E02" offset="0%"></stop>
            <stop stop-color="#FF6F02" offset="100%"></stop>
        </linearGradient>
        <polygon id="path-7" points="0 0.0324266017 0.598491602 0.0324266017 0.598491602 0.724033195 0 0.724033195"></polygon>
        <polygon id="path-9" points="0.0686841632 0.0647481259 9.50846445 0.0647481259 9.50846445 16.6566561 0.0686841632 16.6566561"></polygon>
        <linearGradient x1="0%" y1="50%" x2="100%" y2="50%" id="linearGradient-11">
            <stop stop-color="#0CC47E" offset="0%"></stop>
            <stop stop-color="#0CBE89" offset="100%"></stop>
        </linearGradient>
    </defs>
    <g id="告警关联@20200427" stroke="none" stroke-width="1" fill="none" fill-rule="evenodd">
        <g id="08_OSS故障_版本号" transform="translate(-541.000000, -315.000000)">
            <g id="弹框" transform="translate(443.000000, 226.000000)">
                <g id="编组-14" transform="translate(98.000000, 89.000000)">
                    <g id="5Glogo">
                        <g id="编组-11" transform="translate(0.000000, 34.400000)" fill="#0B81EF">
                            <path d="M8.65001173,8.77916951 C8.38260545,8.42153861 7.9640565,7.91393346 7.40599122,7.24481758 C7.34785943,7.16406221 7.30123772,7.10637981 7.25484855,7.04869741 L8.09194646,6.47187337 C8.25471549,6.65657243 8.48724269,6.92179612 8.77790169,7.27942702 C9.11494986,7.66013088 9.37084604,7.93700642 9.54524144,8.08698067 L8.65001173,8.77916951 Z M4.70867574,4.5452811 L4.51091136,5.3182253 L8.49886905,5.3182253 L8.6964009,4.5452811 L4.70867574,4.5452811 Z M5.08071925,3.09168453 L4.88307114,3.86462874 L8.8707963,3.86462874 L9.06856068,3.09168453 L5.08071925,3.09168453 Z M2.26714017,8.84850376 C2.11599749,8.61777415 1.96485481,8.37539269 1.79045942,8.12159011 C2.51129373,7.70627681 3.31351256,7.15252573 4.18548955,6.42584282 L4.76680754,7.03716093 C4.38313766,7.34876127 3.79019331,7.76395921 3.0112272,8.3061738 C2.70882558,8.5484399 2.45316193,8.72148711 2.26714017,8.84850376 L2.26714017,8.84850376 Z M0.627823432,9.24062874 C0.453428034,9.00989912 0.244153557,8.76763303 8.52651283e-14,8.51383045 C0.49981721,7.9485429 0.883603349,7.36018239 1.139267,6.74874891 C1.4184159,6.16038839 1.7090749,5.2605429 2.01124399,4.06086427 L2.90658996,0.484555262 L11.3473272,0.484555262 L11.1379365,1.32660299 L7.7315293,1.32660299 C7.69665022,1.37274891 7.62689206,1.47657724 7.53376492,1.63820333 C7.38273851,1.94957294 7.25484855,2.16876608 7.17346403,2.29566736 L10.2311967,2.29566736 L9.2662088,6.1374308 L6.94093683,6.1374308 L6.45262972,8.06390771 C6.26660796,8.70995063 5.83643264,9.03297209 5.15036115,9.06758153 C4.90632386,9.09065449 4.46452218,9.10219097 3.82507239,9.10219097 C3.87146157,8.82531543 3.87146157,8.52536694 3.81332977,8.21399732 L4.8946975,8.21399732 C5.22023557,8.23695492 5.42951005,8.11005363 5.49915195,7.83317809 L5.92944352,6.1374308 L3.33676528,6.1374308 L4.30175314,2.29566736 L6.12709164,2.29566736 C6.22010252,2.14569312 6.34799248,1.88035406 6.51076152,1.52283852 C6.48739253,1.60347852 6.53401424,1.53425964 6.63865147,1.32660299 L3.69706617,1.32660299 L2.96472176,4.2453326 C2.65069378,5.47973603 2.34852469,6.41419097 2.02298661,7.04869741 C1.72058499,7.74088625 1.2555306,8.46768453 0.627823432,9.24062874 L0.627823432,9.24062874 Z" id="Fill-3"></path>
                            <path d="M13.2772797,9.1598503 C13.2424006,9.11381974 13.1958952,9.03294901 13.1377634,8.92912069 C12.9401153,8.59467811 12.8005989,8.37536961 12.7192144,8.27165665 C15.1374973,7.17569099 16.6489241,5.41049408 17.2534948,2.99948498 L14.3469048,2.99948498 L14.6026847,1.96120172 L17.5906592,1.96120172 C17.6371646,1.75354506 17.7418019,1.41887176 17.8813182,0.957412532 C17.9859554,0.519141631 18.0789663,0.207541288 18.1603508,-3.55271368e-15 L19.2879915,-3.55271368e-15 C19.1834705,0.438270901 18.9973325,1.04970438 18.7416688,1.84583691 C18.7532952,1.82264858 18.7416688,1.85725803 18.7184161,1.96120172 L23.0550483,1.96120172 C22.4853567,3.93382455 21.9854232,5.61826609 21.5552479,7.00264378 C21.2064571,8.28307777 20.4042383,8.90616309 19.1485914,8.88309013 C18.5788998,8.90616309 17.9161973,8.91758421 17.1604839,8.91758421 C17.195363,8.68685459 17.2069893,8.37536961 17.195363,7.99466575 C17.1837366,7.91391039 17.1837366,7.86787983 17.195363,7.84480687 C17.6022856,7.86787983 18.2068563,7.87930094 19.0090751,7.87930094 C19.8229203,7.92556223 20.3344801,7.4870606 20.5437546,6.5295327 C20.7297764,5.98731811 21.008809,5.02979021 21.3808525,3.64541253 C21.4854898,3.33392755 21.5552479,3.11484979 21.5785006,2.98783313 L18.357999,2.98783313 C17.6836701,5.82592275 15.9745952,7.87930094 13.2772797,9.1598503" id="Fill-5"></path>
                            <path d="M30.6354117,4.27994204 L32.2979812,4.27994204 L32.7398991,2.5148605 L31.0772134,2.5148605 L30.6354117,4.27994204 Z M28.9844686,2.5148605 L29.2169958,1.59194204 L30.2983635,1.59194204 L30.6819171,0.0575901116 L31.6935267,0.0575901116 L31.3097406,1.59194204 L32.9724263,1.59194204 L33.3559799,0.0575901116 L34.3675895,0.0575901116 L33.9838033,1.59194204 L35.1464393,1.59194204 L34.9139121,2.5148605 L33.7512761,2.5148605 L33.3094745,4.27994204 L34.7860222,4.27994204 L34.5651213,5.16825106 L33.0886899,5.16825106 L32.4723766,7.62552144 L31.4609995,7.62552144 L32.0770803,5.16825106 L30.3680054,5.16825106 C30.05421,6.1951132 29.4263865,7.08330685 28.4613987,7.82164161 C28.3800142,7.71781329 28.2403816,7.57949088 28.019597,7.39479183 C27.8915908,7.29107887 27.7986962,7.21020814 27.728938,7.16406221 C28.5776623,6.5757017 29.1008485,5.90670118 29.321633,5.16825106 L27.9264699,5.16825106 L28.147487,4.27994204 L29.6239184,4.27994204 L30.0658363,2.5148605 L28.9844686,2.5148605 Z M27.6243008,2.39949569 C27.5195473,2.12262015 27.3567782,1.70730685 27.1592464,1.16509226 C27.0544929,0.888332086 26.9731083,0.680560069 26.9267192,0.553658781 L27.856828,0.0921995536 C28.1706234,0.680560069 28.449656,1.28045706 28.6821832,1.90342702 L27.6243008,2.39949569 Z M24.7177108,9.15987337 L24.4851836,8.08698067 C24.6710891,7.98326771 24.9036163,7.8102205 25.2059017,7.54476608 C25.5198134,7.31403646 25.7407142,7.15252573 25.8686042,7.04869741 L26.5779284,4.2453326 L25.5663188,4.2453326 L25.822215,3.24165878 L27.833459,3.24165878 L26.8917238,7.01408797 C27.0893719,7.66013088 27.6706899,7.98326771 28.6125414,8.01776179 C30.9609498,8.01776179 32.7514092,8.0062253 33.972177,7.98326771 C33.9256715,8.08698067 33.8326607,8.23695492 33.7047707,8.44472694 C33.6001335,8.67545655 33.5071226,8.83685191 33.4257381,8.94068024 L30.0889728,8.94068024 C29.2983803,8.91760728 28.6589305,8.89453432 28.1706234,8.85992488 C27.0661192,8.83685191 26.403533,8.50240934 26.1710058,7.85625106 C25.6244506,8.28310084 25.1361435,8.72148711 24.7177108,9.15987337 L24.7177108,9.15987337 Z" id="Fill-7"></path>
                            <path d="M39.9016438,6.62182455 C39.8551383,6.39109494 39.7272484,6.06807348 39.5179739,5.66429665 C40.4132036,5.28359279 41.2270488,4.87981597 41.9478831,4.47603914 L43.0407609,0.126785923 L44.1684016,0.126785923 L43.2732881,3.70309494 C44.3545396,2.98783313 45.3776592,2.18027948 46.3192781,1.28043399 L46.9937233,2.00723227 C45.7612129,3.11484979 44.4126714,4.10687176 42.9476338,5.00671725 L42.3780584,7.27940395 C42.2269157,7.76393614 42.4013111,7.99466575 42.9012446,7.97159279 L43.6337053,7.97159279 C44.1452651,7.99466575 44.4824295,7.78712446 44.6451986,7.36015931 C44.7265831,7.1294297 44.9241149,6.59886695 45.2381429,5.77966146 C45.3311538,5.80273442 45.4939228,5.8719533 45.72645,5.97578163 C45.9357245,6.05665236 46.0868672,6.11433476 46.1798781,6.17201717 C45.9240982,6.86420601 45.691571,7.44103004 45.4705539,7.90248927 C45.1916375,8.61775107 44.528935,8.96384549 43.5058153,8.94077253 L42.3431793,8.94077253 C41.2735542,8.98680309 40.8898843,8.49073442 41.2036798,7.44103004 L41.6338551,5.74505202 C41.1572906,5.99896996 40.5759726,6.28738197 39.9016438,6.62182455 M37.2159546,5.7336309 L37.1578228,4.42989322 C38.4832279,3.17253219 39.6574902,1.71882026 40.7038626,0.0460305579 L41.7037295,0.392124979 C41.168917,1.18814215 40.6108517,1.93801339 40.0527864,2.66481167 L38.4250961,9.1598503 L37.4136027,9.1598503 L38.6343705,4.31452841 C38.4948542,4.46461803 38.262327,4.69534764 37.9600417,5.00671725 C37.6228772,5.34127519 37.3787237,5.58354129 37.2159546,5.7336309" id="Fill-9"></path>
                        </g>
                        <g id="编组备份" transform="translate(1.612903, 0.000000)">
                            <g id="编组" transform="translate(1.636768, 0.013881)">
                                <mask id="mask-2" fill="white">
                                    <use xlink:href="#path-1"></use>
                                </mask>
                                <g id="Clip-2"></g>
                                <path d="M9.4399224,0.846676365 C9.60677642,0.334669247 9.41902954,0.0786194194 8.87668178,0.0786194194 L6.13268902,0.0924999666 C5.59034126,0.095553687 5.23574037,0.353176643 5.06888636,0.865183762 L0.119975066,15.9070701 C-0.0500562047,16.4191697 0.136053901,16.6736464 0.678401662,16.670529 L3.42239442,16.6566196 C3.96483846,16.6566196 4.32107612,16.4005698 4.49120367,15.8885627 L9.4399224,0.846676365 Z" id="Fill-1" fill="url(#linearGradient-3)" mask="url(#mask-2)"></path>
                            </g>
                            <g id="编组" transform="translate(5.776827, 0.013881)">
                                <mask id="mask-5" fill="white">
                                    <use xlink:href="#path-4"></use>
                                </mask>
                                <g id="Clip-4"></g>
                                <path d="M2.04560328,0.0786379268 C1.48717668,0.0786379268 1.126125,0.326914648 0.962448239,0.823560627 L0.129622367,3.34056652 C-0.0340543943,3.8372125 0.163320523,4.08548922 0.72174712,4.08548922 L17.0942372,4.10862347 C17.6526638,4.10862347 18.0137155,3.86034675 18.1773923,3.36370077 L19.0102182,0.846694873 C19.1738949,0.350048893 18.97652,0.101772172 18.4180934,0.101772172 L2.04560328,0.0786379268 Z" id="Fill-3" fill="url(#linearGradient-6)" mask="url(#mask-5)"></path>
                            </g>
                            <g id="编组" transform="translate(0.000000, 29.718252)">
                                <mask id="mask-8" fill="white">
                                    <use xlink:href="#path-7"></use>
                                </mask>
                                <g id="Clip-6"></g>
                                <path d="M0.0479368949,0.0324266017 C-0.0969459227,0.478118314 0.086572313,0.708530067 0.598491602,0.724033195 L0.0479368949,0.0324266017 Z" id="Fill-5" fill="#0299FF" mask="url(#mask-8)"></path>
                            </g>
                            <path d="M22.9432552,9.42022769 C22.8694081,9.34619811 22.7940205,9.27216852 22.7169961,9.19813894 C20.2522167,6.82919221 17.2899561,5.60927719 13.8304071,5.53830132 L13.6810761,5.53830132 L13.5270274,5.53830132 L13.3440946,5.53830132 L13.3200244,5.53830132 L13.1323738,5.54292817 C12.5514176,5.55838185 11.8260407,5.55995498 10.9563395,5.54755502 L9.55064491,9.60992851 C12.249771,9.49277669 14.4337004,10.1651504 16.1025294,11.6272347 C17.7681811,13.089319 18.7261716,14.3694756 18.9765007,15.4675194 C19.2268299,16.5655633 19.3519945,17.3922886 19.3519945,17.9475105 C19.3519945,18.5057861 19.300677,19.0456469 19.1980421,19.5669077 C18.8833975,21.2048123 18.0810926,22.6421892 16.7910309,23.879131 C15.0867707,25.5232356 13.0295463,26.3560684 10.6193579,26.3776295 L1.9157017,26.3683758 C1.41176983,26.3653221 1.09240759,26.5642766 0.957614961,26.9652394 L0.0477647301,29.7506025 L0.596563282,30.440003 L13.5318414,30.5186595 C17.1199249,30.5186595 20.1831836,29.2987444 22.7218102,26.8588218 C22.7988345,26.7847923 22.8742221,26.7107627 22.9480692,26.6367331 C25.3326471,24.2400253 26.5248878,21.3698057 26.5248878,18.026167 C26.5248878,14.7688652 25.3920521,11.9634216 23.126188,9.60992851 C23.0652425,9.54515262 23.004297,9.48194986 22.9432552,9.42022769" id="Fill-7" fill="#379EFA"></path>
                            <g id="编组" transform="translate(37.645655, 14.079502)">
                                <mask id="mask-10" fill="white">
                                    <use xlink:href="#path-9"></use>
                                </mask>
                                <g id="Clip-10"></g>
                                <path d="M9.44960821,0.832805072 C9.61646223,0.320797954 9.42871536,0.0647481259 8.88627131,0.0647481259 L6.14227855,0.0786286731 C5.60002707,0.0817749305 5.2453299,0.33930535 5.07847589,0.851312468 L0.129564598,15.8931988 C-0.0404666722,16.4052059 0.145643433,16.6596826 0.688087475,16.6566561 L3.43208023,16.6427483 C3.974428,16.6427483 4.33066565,16.3866985 4.5007932,15.8746914 L9.44960821,0.832805072 Z" id="Fill-9" fill="#0B81EF" mask="url(#mask-10)"></path>
                            </g>
                            <path d="M46.1083887,17.6190135 L47.051937,14.8336504 C47.199535,14.3894729 47.047123,14.1597035 46.5946049,14.1442498 L32.5135895,14.1442498 C32.0642486,14.1442498 31.762602,14.3725386 31.608457,14.8290235 L30.6697226,17.6005061 C30.531849,17.9984151 30.6874382,18.1973696 31.136779,18.1973696 L45.2274226,18.2159117 C45.6734899,18.2189308 45.9671452,18.0199762 46.1083887,17.6190135" id="Fill-11" fill="url(#linearGradient-11)"></path>
                            <path d="M45.8436174,6.30636752 C45.9880381,5.86219001 45.8051053,5.63242069 45.2948189,5.61696701 L32.3594445,5.53831058 C28.7714573,5.53831058 25.7081023,6.7582256 23.169572,9.19814819 C20.6341227,11.6380708 19.3664943,14.5823199 19.3664943,18.0308031 C19.3664943,21.2881048 20.4994263,24.0935485 22.7651941,26.4470415 C22.8967132,26.585847 23.0331426,26.7231719 23.174386,26.8588311 C25.6390692,29.2277778 28.6013297,30.4476928 32.0610713,30.5186687 L32.2102098,30.5186687 L32.3643548,30.5186687 L32.5471913,30.5186687 L32.5712614,30.5186687 L32.7591046,30.5140419 C33.3399645,30.4986807 33.9080192,30.4508391 34.4632685,30.3706095 C34.6076892,30.2718726 34.7151382,30.1223328 34.7857117,29.9218052 L35.7292601,27.136442 C35.8416194,26.8033089 35.7839474,26.5904739 35.5559553,26.4979369 C35.4629484,26.5009906 35.3682084,26.5025637 35.271928,26.5025637 C34.9093358,26.5025637 34.5563717,26.4840563 34.2128431,26.4470415 C32.2519955,26.2373527 30.5510088,25.4368153 29.1099793,24.0457069 C27.807016,22.7964576 27.0015338,21.3528807 26.6934364,19.7149761 C26.5907052,19.1998228 26.5393877,18.6646814 26.5393877,18.1094595 C26.5393877,17.5511839 26.5907052,17.0114157 26.6934364,16.4900623 C27.0078883,14.8521578 27.8101933,13.4146883 29.1004476,12.177839 C30.8046115,10.533827 32.8617395,9.71172844 35.271928,9.71172844 L35.271928,9.6793405 L43.9757767,9.68859419 C44.4796123,9.69164791 44.7988783,9.49278594 44.9337672,9.09173066 L45.8436174,6.30636752 Z" id="Fill-13" fill="#369EFA"></path>
                            <path d="M23.1262265,9.60995627 C23.0651847,9.54518038 23.0042392,9.48188509 22.9432937,9.42025546 C20.5587158,11.8169633 19.3664751,14.6870903 19.3664751,18.0308216 C19.3664751,21.2881233 20.4994071,24.093567 22.7651749,26.44706 C22.8261204,26.5117434 22.8871622,26.5750387 22.9480114,26.6367608 C25.3326856,24.240053 26.5249263,21.3698335 26.5249263,18.0261947 C26.5249263,14.768893 25.3919943,11.9634493 23.1262265,9.60995627" id="Fill-15" fill="#0B81EF"></path>
                        </g>
                    </g>
                </g>
            </g>
        </g>
    </g>
</svg>